<svg width="240" height="87" viewBox="0 0 240 87" fill="none" xmlns="http://www.w3.org/2000/svg">
<g clip-path="url(#clip0_38_1225)">
<path d="M-22.5124 -82.9256H260.777V111.686H-22.5124V-82.9256Z" fill="#ECCCBD"/>
<path d="M204.982 31.5082C211.584 30.9228 212.134 39.3633 207.296 42.2699C212.565 45.2697 211.376 54.9371 203.473 52.5363C198.231 50.1313 199.557 45.7339 194.215 42.2894C197.385 40.0306 197.832 38.3049 199.778 35.1831C201.124 33.0236 202.546 32.049 204.982 31.5082Z" fill="#232A23"/>
<path d="M28.0679 31.5079C33.3805 31.1507 34.7596 35.7692 37.1176 39.3151C37.8726 40.4502 38.9832 41.414 40.0876 42.21C38.8612 43.1902 37.9754 43.9296 37.0512 45.2324C35.1277 47.9441 34.8299 50.0092 32.0137 52.038C30.4291 52.9246 28.5347 53.3057 26.8058 52.648C22.6364 51.062 23.2566 43.9505 27.1261 42.3651C23.999 40.1819 22.5559 35.6534 25.5639 32.5387C26.1435 31.9385 27.2668 31.6908 28.0679 31.5079Z" fill="#232A23"/>
<path d="M71.1122 23.2734C73.0267 23.6417 75.2799 25.1794 76.9359 26.2683C77.9973 26.6025 78.202 26.3923 79.2758 25.9328C79.9276 26.0901 80.5977 26.2173 81.1977 26.5098C83.5981 27.5799 85.2483 29.6123 87.2294 31.2158C88.8002 32.4872 90.6923 33.8581 92.3755 34.9531C91.9864 35.9374 91.7501 36.7569 91.4542 37.7685C90.2373 37.0226 85.6178 34.8642 84.4658 35.9851C84.4443 37.8221 89.7549 38.9776 91.284 39.436L90.8787 41.0778C82.2838 40.8624 72.4398 36.4392 68.6764 28.1145C67.6153 25.7675 68.7167 23.9847 71.1122 23.2734Z" fill="#232A23"/>
<path d="M76.936 26.2684C77.9973 26.6025 78.202 26.3923 79.2759 25.9328C79.9276 26.0901 80.5977 26.2173 81.1977 26.5099C80.4805 26.7895 80.1945 27.0074 79.3026 27.2703C78.5332 26.9888 77.6355 26.875 76.962 26.5491L76.936 26.2684Z" fill="#232A23"/>
<path d="M81.8318 35.6351C82.1917 35.6001 82.2598 35.5689 82.5848 35.7398L82.5947 35.9809C82.0087 36.8939 80.6084 37.4744 79.6191 37.7978C79.3721 37.7796 79.0708 37.6285 78.8759 37.4743L78.9202 37.1689C79.4439 36.3582 80.9119 35.955 81.8318 35.6351Z" fill="#232A23"/>
<path d="M143.437 43.3043C148.071 43.4255 152.601 44.6883 156.629 46.9808C159.981 48.8543 168.167 55.4892 165.536 59.7881C165.157 60.416 164.536 60.86 163.818 61.0122C162.06 61.3953 159.484 59.5073 157.932 58.5584C156.25 57.3565 155.216 59.019 152.939 57.8627C150.463 56.6068 149.046 54.741 146.96 53.0801C145.46 51.8852 143.688 50.6874 142.129 49.5163C142.3 48.6792 142.663 47.5613 142.909 46.7188C144.101 47.318 149.176 49.8377 150.042 48.4133C149.789 46.7495 144.767 45.4918 143.331 45.0201C143.35 44.4724 143.403 43.8574 143.437 43.3043Z" fill="#232A23"/>
<path d="M88.7813 43.4101C89.1957 43.348 90.3984 43.3128 90.8734 43.2852C90.9487 43.8 91.0992 44.3956 91.214 44.9101C89.3499 45.7119 84.7127 46.4966 84.2293 48.5076C84.9784 49.9078 90.373 47.2454 91.4862 46.6606C91.7317 47.6355 92.0262 48.6554 92.2908 49.6302C90.6983 50.5177 88.2978 52.3586 86.8917 53.5246C84.8566 55.2123 83.1877 57.2915 80.524 58.1615C79.5179 58.4907 79.1252 58.5474 78.2215 58.0896C76.5625 57.5101 74.083 60.7494 71.5555 61.0772C70.7581 61.181 69.954 60.9431 69.3422 60.4216C66.925 58.3842 69.6031 54.1907 71.0769 52.4394C75.2066 47.5322 82.4371 43.9137 88.7813 43.4101Z" fill="#232A23"/>
<path d="M162.359 23.4785C162.518 23.4519 162.678 23.4302 162.839 23.4131C163.478 23.3474 164.831 23.6684 165.236 24.1244C167.457 26.6162 164.405 30.8679 162.882 32.5064C157.635 38.1491 151.035 40.7641 143.457 41.1014L143.298 39.4043L146.969 38.2735C147.814 37.9705 150.181 37.0521 150.199 36.0227C149.109 34.7246 144.105 37.0897 142.895 37.8203L142.104 34.9138C143.432 34.0697 145.725 32.4129 146.947 31.4061C149.912 28.9607 151.271 26.7488 155.29 25.9297L156.616 26.5587C158.618 25.7887 160.277 24.3217 162.359 23.4785Z" fill="#232A23"/>
<path d="M113.018 36.627C114.816 36.7059 115.713 37.418 116.96 38.6415C117.637 37.8255 118.99 36.9617 120.04 36.7552C124.144 35.9476 122.502 40.75 120.778 42.258C120.763 42.282 120.749 42.3059 120.734 42.3298C122.365 44.1495 123.86 46.2992 121.213 48.0193C119.687 48.2345 118.008 46.946 116.894 46.0516C113.346 50.1703 108.663 47.1309 113.269 42.3306C111.703 40.8522 109.801 37.4767 113.018 36.627Z" fill="#995A3C"/>
<path d="M167.491 43.3933C169.437 43.0882 171.719 43.7225 173.647 44.1546C180.494 45.6985 187.405 47.8178 193.521 51.3194C197.123 53.382 203.835 58.3676 200.991 63.1257C197.756 66.8146 195.875 58.0426 194.868 56.6276C188.755 48.0322 176.971 47.0223 167.708 44.1433C167.504 44.0803 167.509 43.5685 167.491 43.3933Z" fill="#232A23"/>
<path d="M34.1244 20.7133C37.8773 20.2106 37.8506 25.1008 39.3381 27.4778C43.3067 33.8243 51.1966 36.1393 57.9878 38.0607C59.2976 38.4312 66.6288 39.6368 66.88 40.7759C66.4625 41.0983 66.3513 41.011 65.7636 41.0641C65.468 41.0554 65.1725 41.0417 64.8775 41.0226C62.7563 40.8842 59.6597 40.0908 57.5284 39.5318C49.6635 37.4022 40.6762 34.601 34.9602 28.4892C32.9297 26.318 31.4986 23.0138 34.1244 20.7133Z" fill="#232A23"/>
<path d="M64.12 43.3898C64.8443 43.3375 66.5275 43.1057 67.0076 43.7483C66.4839 44.6527 62.4629 45.306 61.2844 45.592C53.7229 47.4272 42.5429 50.2176 38.8749 57.9029C37.8639 60.0219 37.8782 62.3166 35.6304 63.7482C32.5831 64.3941 32.2039 60.3622 33.1717 58.6858C38.7641 49.0003 54.3168 45.65 64.12 43.3898Z" fill="#232A23"/>
<path d="M198.829 20.6526C200.463 20.4734 201.311 21.266 201.632 22.808C201.928 24.2274 201.228 26.2029 200.35 27.3172C194.074 35.287 179.819 39.3253 170.343 40.9736C169.297 41.0729 168.516 41.2162 167.525 40.7804L167.484 40.5684C167.915 40.2006 168.919 39.8459 169.507 39.6977C178.436 37.4448 190.497 35.5969 195.443 26.7728C196.714 24.5062 196.283 22.2298 198.829 20.6526Z" fill="#232A23"/>
<path d="M156.191 43.3063C157.634 43.2124 158.985 43.6595 160.375 44.0765C166.726 45.9817 173.383 48.8449 178.118 53.6275C180.346 55.8793 182.892 60.2308 180.94 63.3457C180.749 63.5075 180.471 63.744 180.236 63.8118C179.948 63.8934 179.64 63.8505 179.384 63.6956C178.171 62.9694 177.675 60.1132 177.281 58.748C175.302 51.8868 168.897 48.537 162.631 46.4136C161.278 45.9554 157.328 44.8118 156.329 44.2425C156.043 43.7783 156.122 43.9593 156.191 43.3063Z" fill="#232A23"/>
<path d="M53.9697 20.6069C54.2703 20.6087 54.8583 20.611 55.0791 20.8244C56.6038 22.2989 56.9497 25.2668 57.6922 27.1986C60.1844 33.7774 67.6689 36.8433 73.8841 38.7488C74.9222 39.067 78.1547 39.7531 78.4034 40.8035C78.0147 41.1264 78.1009 41.0239 77.4979 41.0876C76.4367 41.021 75.1352 40.7477 74.0874 40.4288C67.8887 38.5416 61.5675 35.899 56.8425 31.351C54.3998 28.9999 50.91 23.6112 53.9697 20.6069Z" fill="#232A23"/>
<path d="M76.2767 43.394C76.9105 43.328 78.0506 43.1331 78.4492 43.6967C77.921 44.7448 72.2467 46.2162 70.8455 46.7006C69.8095 47.0693 68.7903 47.484 67.791 47.9433C65.7069 48.8977 63.6828 50.057 61.9107 51.5197C56.1864 56.2444 57.6644 61.1685 55.1012 63.7522C55.0694 63.7854 55.0366 63.8159 55.0043 63.8477C51.6564 64.1312 52.8987 58.6138 53.9584 56.8572C58.6436 49.0915 68.0796 45.8884 76.2767 43.394Z" fill="#232A23"/>
<path d="M179.746 20.4996C180.582 20.6686 180.824 21.0393 181.367 21.6726C183.668 32.2108 165.8 39.0848 158.105 40.9518C157.492 41.0639 156.444 41.263 156.061 40.654C156.293 40.265 156.99 39.8346 157.418 39.7023C163.334 37.873 169.412 36.283 173.892 31.614C175.173 30.2916 176.173 28.7248 176.834 27.0074C177.731 24.7133 177.714 21.8607 179.746 20.4996Z" fill="#232A23"/>
<path d="M123.012 48.4812C125.261 48.1558 129.75 51.233 130.818 53.3198C133.052 57.6871 129.857 64.2585 124.386 62.4673C123.268 61.9818 121.35 60.6914 121.247 59.3538C121.296 59.2695 121.344 59.1837 121.392 59.0979C127.155 61.9168 130.496 55.3621 125.892 51.4652C125.242 50.9147 123.26 49.2999 123.012 48.4812Z" fill="#232A23"/>
<path d="M130.177 26.6379C135.719 26.0606 139.586 31.2772 135.406 35.8567C135.19 36.0939 134.636 36.4457 134.312 36.4238C134.176 35.9822 134.539 35.3368 134.623 34.8882C135.015 32.8035 133.395 30.7491 131.397 30.366C128.134 29.8423 126.643 32.0738 125.16 34.6117C124.817 35.2007 124.362 36.0468 123.823 36.4354L123.593 36.3699C123.122 34.8776 124.465 31.5378 125.191 30.1192C126.293 27.9651 127.999 27.288 130.177 26.6379Z" fill="#232A23"/>
<path d="M132.068 39.3999C138.207 39.5133 142.408 47.456 136.325 50.8072C135.362 51.3375 132.369 51.6877 131.869 50.6604C132.211 50.2645 132.378 50.3096 132.93 50.1306C133.951 49.8728 134.99 48.5446 135.21 47.5385C135.831 44.6817 134.651 42.9534 131.861 42.2213C129.767 41.6715 127.916 42.2034 125.835 41.9079C125.699 41.8885 125.703 41.8077 125.627 41.6827C126.192 40.7543 130.87 39.5483 132.068 39.3999Z" fill="#232A23"/>
<path d="M100.052 47.6386C100.061 47.647 100.197 47.9013 100.193 47.9144C99.872 49.033 99.5693 49.825 99.7811 51.0294C99.9513 52.0422 100.529 52.941 101.381 53.5158C106.388 56.9403 109.427 49.2092 110.874 48.9537L111.014 49.1802C111.073 50.1253 110.1 52.6057 109.653 53.5063C108.93 54.7067 108.415 55.5779 107.278 56.4714C105.895 57.5724 104.121 58.0593 102.369 57.8186C97.279 57.1311 94.8662 52.1318 98.9819 48.4406C99.2878 48.1662 99.718 47.8798 100.052 47.6386Z" fill="#232A23"/>
<path d="M117.402 51.0315C118.237 51.3572 118.235 52.1283 118.629 52.9043C121.445 58.4451 119.298 65.0262 112.365 64.7676C111.078 64.7192 109.756 63.6514 108.96 62.5614C108.299 61.4148 107.704 58.1809 108.709 57.3801L108.879 57.452C109.311 59.0136 109.76 59.9528 111.337 60.6734C112.33 61.134 113.467 61.1755 114.491 60.7868C119.2 58.9887 116.339 53.0025 117.402 51.0315Z" fill="#232A23"/>
<path d="M119.969 19.7421C124.752 19.197 126.849 23.1382 125.303 27.3719C125.223 27.1365 125.14 26.9022 125.054 26.6687C123.491 22.4364 118.782 22.1776 116.919 26.5408C116.164 28.9435 116.843 30.5862 116.606 32.9143C116.591 33.0633 116.391 33.0546 116.269 33.0772C115.356 32.4324 114.433 28.9554 114.204 27.793C113.865 26.0723 114.272 23.9427 115.332 22.5161C116.458 21.0242 118.121 20.0293 119.969 19.7421Z" fill="#232A23"/>
<path d="M105.117 34.0504C104.111 33.3176 103.195 32.4333 102.586 31.3388C101.002 28.4881 101.975 24.105 104.906 22.5014C106.088 21.8626 107.478 21.7291 108.76 22.1312C110.578 22.699 111.659 24.2352 112.504 25.8369C111.6 25.3225 111.265 25.1115 110.267 24.9084C107.318 24.3078 104.662 26.9352 105.474 29.8873C105.786 31.025 106.354 31.7416 107.077 32.6486C106.243 33.0335 105.501 33.235 105.117 34.0504Z" fill="#232A23"/>
<path d="M94.8198 42.4107C94.9685 42.1059 97.5286 40.6909 98.014 40.4401C100.723 45.6495 106.469 41.694 108.045 42.6683L108.06 42.8578C107.132 43.9279 104.414 45.077 103.064 45.5865C100.829 46.4298 98.3763 45.9761 96.5472 44.4629C95.8276 43.7576 95.4237 43.2049 94.8198 42.4107Z" fill="#232A23"/>
<path d="M94.8198 42.4108C96.4099 42.6436 96.836 42.4014 98.2535 42.4738C98.3077 43.1791 96.9571 43.9204 96.5472 44.463C95.8276 43.7577 95.4237 43.205 94.8198 42.4108Z" fill="#232A23"/>
<path d="M102.303 36.2937C104.519 36.2191 106.697 37.5702 108.558 38.6807C108.419 39.3861 108.302 40.1365 108.178 40.8483L106.891 40.9721C104.299 41.0247 101.611 41.5216 100.297 38.8478L101.027 37.1157L102.303 36.2937Z" fill="#232A23"/>
<path d="M121.7 49.721L121.94 49.7733C123.83 51.3284 127.801 55.4367 124.247 57.3012C123.427 57.3399 122.958 57.4353 122.257 56.9429C120.676 55.8309 120.186 52.4588 119.881 50.5941L121.7 49.721Z" fill="#232A23"/>
<path d="M120.795 26.0795C126.163 26.0965 122.186 31.7686 120.766 33.729C120.724 33.769 120.684 33.8089 120.644 33.8491C118.042 34.4326 118.187 31.9105 118.598 30.1485C118.961 28.5934 119.1 26.7121 120.795 26.0795Z" fill="#232A23"/>
<path d="M129.464 33.8209C130.247 33.7484 130.67 33.6962 131.368 34.1253C132.497 34.8181 132.508 36.1746 131.776 37.1966C130.786 38.5805 128.829 38.9992 127.259 39.3043C126.667 39.3721 126.036 39.5047 125.444 39.6159C125.09 38.9162 124.787 38.2522 124.465 37.5365C126.209 35.974 127.358 34.8929 129.464 33.8209Z" fill="#232A23"/>
<path d="M108.147 45.8822C108.29 45.86 108.524 45.8568 108.676 45.8493C109.025 46.1222 109.583 47.1379 109.892 47.6008C108.183 49.5339 106.586 51.2969 104.038 51.9664C103.292 51.6235 102.17 50.8821 102.118 50.0433C101.943 47.2705 106.463 46.1472 108.147 45.8822Z" fill="#232A23"/>
<path d="M109.477 27.2015C113.155 26.9372 113.298 31.0666 113.725 33.8268C113.005 34.2787 112.778 34.3913 111.986 34.7014L111.678 34.6677C109.953 33.3252 105.839 28.5718 109.477 27.2015Z" fill="#232A23"/>
<path d="M125.649 43.9348C128.426 43.7351 135.484 43.66 132.197 48.275C129.645 49.3112 127.257 47.4868 125.176 46.1483C125.31 45.2662 125.379 44.7758 125.649 43.9348Z" fill="#232A23"/>
<path d="M113.405 50.6797L115.529 50.9661C115.581 53.5182 116.487 57.6995 113.596 58.8033C112.663 58.5543 112.338 58.3579 111.541 57.8282C111.461 57.5903 111.387 57.351 111.32 57.1089C110.741 54.9704 112.391 52.4272 113.405 50.6797Z" fill="#232A23"/>
<path d="M94.2343 37.7883C95.6543 34.4914 98.0039 34.3289 101.203 34.5863C99.5948 35.5815 97.9855 36.2998 97.7605 38.3744C97.7737 39.1296 97.7343 39.7355 98.014 40.4401C97.5286 40.6909 94.9685 42.1059 94.8198 42.4107C93.8395 41.2382 93.8417 39.1938 94.2343 37.7883Z" fill="#232A23"/>
<path d="M94.8198 42.4107C93.8395 41.2382 93.8417 39.1938 94.2343 37.7883C95.1622 38.1893 97.1645 39.6223 97.7605 38.3744C97.7737 39.1296 97.7343 39.7356 98.014 40.4401C97.5286 40.6909 94.9685 42.1059 94.8198 42.4107Z" fill="#232A23"/>
<path d="M18.5464 47.4352C19.893 47.2434 21.1507 48.1493 21.3954 49.4873C21.6399 50.8251 20.7841 52.1174 19.4567 52.4143C18.5504 52.6171 17.6058 52.3077 16.9952 51.6081C16.3845 50.9083 16.2058 49.9307 16.5294 49.0602C16.8531 48.1897 17.627 47.5662 18.5464 47.4352Z" fill="#232A23"/>
<path d="M214.791 47.6084C216.097 47.2087 217.485 47.9188 217.925 49.2121C218.365 50.5055 217.698 51.9146 216.419 52.3947C215.556 52.7189 214.585 52.5473 213.885 51.9468C213.183 51.3464 212.867 50.4125 213.055 49.5097C213.243 48.6068 213.908 47.8783 214.791 47.6084Z" fill="#232A23"/>
<path d="M217.965 39.5841C219.282 39.2062 220.661 39.9474 221.072 41.2548C221.483 42.5622 220.777 43.959 219.48 44.403C218.907 44.5994 218.282 44.5831 217.719 44.3568C216.718 43.9543 216.083 42.9604 216.138 41.8828C216.195 40.8051 216.928 39.8817 217.965 39.5841Z" fill="#232A23"/>
<path d="M15.3793 39.953C16.7513 39.744 18.0333 40.6855 18.2441 42.0571C18.4549 43.4286 17.515 44.7118 16.1437 44.9245C14.7698 45.1375 13.4837 44.1954 13.2725 42.8214C13.0612 41.4474 14.0049 40.1625 15.3793 39.953Z" fill="#232A23"/>
<path d="M18.0153 32.0703C19.2891 31.5984 20.7072 32.2261 21.2142 33.4864C21.7211 34.7467 21.1325 36.1815 19.8867 36.723C19.0496 37.0868 18.081 36.9671 17.3575 36.4108C16.6341 35.8544 16.2699 34.949 16.4067 34.0467C16.5433 33.1444 17.1594 32.3875 18.0153 32.0703Z" fill="#232A23"/>
<path d="M215.564 32.0118C216.924 32.0311 218.021 33.1319 218.036 34.4922C218.05 35.8527 216.976 36.9761 215.617 37.0238C214.538 37.0616 213.554 36.404 213.178 35.3917C212.89 34.6164 213.004 33.7488 213.481 33.0729C213.957 32.3971 214.737 32.0002 215.564 32.0118Z" fill="#232A23"/>
<path d="M107.077 32.6486C107.853 33.4574 110.494 35.4249 110.533 35.9086C110.243 36.122 110.143 36.259 109.688 36.1475C108.361 35.8223 106.243 34.7752 105.117 34.0505C105.501 33.2351 106.243 33.0336 107.077 32.6486Z" fill="#232A23"/>
</g>
<defs>
<clipPath id="clip0_38_1225">
<rect width="240" height="86.281" fill="white"/>
</clipPath>
</defs>
</svg>
